                                                                <svg xmlns="http://www.w3.org/2000/svg" width="31.003" height="25.194" viewBox="0 0 31.003 25.194">
                                                                    <g id="icons8_twitter_filled" transform="translate(0.582 -55.727)">
                                                                        <path
                                                                            d="M30.421,58.708a12.728,12.728,0,0,1-3.656,1,6.376,6.376,0,0,0,2.8-3.518,12.777,12.777,0,0,1-4.04,1.541,6.363,6.363,0,0,0-10.837,5.8A18.06,18.06,0,0,1,1.576,56.889a6.375,6.375,0,0,0,1.969,8.5,6.358,6.358,0,0,1-2.883-.8v.08a6.369,6.369,0,0,0,5.1,6.239,6.357,6.357,0,0,1-1.674.222,6.136,6.136,0,0,1-1.2-.116,6.375,6.375,0,0,0,5.942,4.419,12.751,12.751,0,0,1-7.9,2.72,12.507,12.507,0,0,1-1.515-.089,17.971,17.971,0,0,0,9.75,2.858c11.7,0,18.1-9.691,18.1-18.1,0-.276-.007-.553-.017-.824A12.933,12.933,0,0,0,30.421,58.708Z"
                                                                            transform="translate(0 0)" fill="#00B1FF" />
                                                                    </g>
                                                                </svg>
