                                            <svg xmlns="http://www.w3.org/2000/svg" width="25.734" height="24.05"
                                                viewBox="0 0 25.734 24.05">
                                                <path
                                                    d="M7.357,6.02c-1.942,0-3.351,1.164-3.351,2.763S5.449,11.6,7.357,11.6c1.942,0,3.351-1.186,3.351-2.853A3.06,3.06,0,0,0,7.357,6.02Zm-2.8,6.708A.561.561,0,0,0,4,13.287V29.51a.561.561,0,0,0,.559.559h5.594a.561.561,0,0,0,.559-.559V13.287a.56.56,0,0,0-.559-.559Zm8.391,0a.56.56,0,0,0-.559.559V29.51a.561.561,0,0,0,.559.559h5.035a.559.559,0,0,0,.559-.559V20.839a2.51,2.51,0,0,1,2.316-2.507,1.853,1.853,0,0,1,.4,0,2.51,2.51,0,0,1,2.316,2.507V29.51a.559.559,0,0,0,.559.559h5.035a.561.561,0,0,0,.559-.559V20c0-3.62-1.942-7.273-6.272-7.273A7.56,7.56,0,0,0,19.1,14.12v-.834a.56.56,0,0,0-.559-.559Z"
                                                    transform="translate(-4 -6.02)" fill="#00B1FF" />
                                            </svg>
