                                        <svg xmlns="http://www.w3.org/2000/svg" width="82.941" height="78.576"
                                            viewBox="0 0 82.941 78.576">
                                            <g id="icons8_commercial" transform="translate(-3 -3)">
                                                <path id="Path_1825" data-name="Path 1825"
                                                    d="M10,48.653,53.653,66.115V5L10,22.461Z"
                                                    transform="translate(23.557 6.731)" fill="#00b1ff" opacity="0.3" />
                                                <path id="Path_1826" data-name="Path 1826"
                                                    d="M29.192,16.731V34.192H11.731V16.731H29.192M37.923,8H11.731A8.756,8.756,0,0,0,3,16.731V34.192a8.756,8.756,0,0,0,8.731,8.731H37.923V8Z"
                                                    transform="translate(0 16.827)" fill="#04354a" />
                                                <path id="Path_1827" data-name="Path 1827"
                                                    d="M59.384,19.479V65.1l-1.606-.537L24.461,53.455V31.122L57.778,20.016l1.606-.537M68.115,3H59.384l-4.365,8.731-39.288,13.1V59.749l39.288,13.1,4.365,8.731h8.731V3ZM7,51.019h8.731V81.576H7Z"
                                                    transform="translate(13.461 0)" fill="#04354a" />
                                                <path id="Path_1828" data-name="Path 1828"
                                                    d="M28.731,18.731A8.728,8.728,0,0,1,20,27.461V10A8.728,8.728,0,0,1,28.731,18.731Z"
                                                    transform="translate(57.211 23.557)" fill="#04354a" />
                                            </g>
                                        </svg>
