
                                        <svg xmlns="http://www.w3.org/2000/svg" width="89.827" height="77.578" viewBox="0 0 89.827 77.578">
                                            <g id="icons8_payment_history_1" transform="translate(-2 -5)">
                                                <path id="Path_1833" data-name="Path 1833" d="M43.831,22.332H76.5V6H3V46.831H43.831Z" transform="translate(3.083 3.083)" fill="#00b1ff" opacity="0.3"/>
                                                <path id="Path_1829" data-name="Path 1829" d="M26.5,29.5a3.858,3.858,0,0,0-4.083-4.083A3.858,3.858,0,0,0,18.332,29.5a3.858,3.858,0,0,0,4.083,4.083A3.858,3.858,0,0,0,26.5,29.5ZM77.537,5a6.125,6.125,0,1,0,6.125,6.125A6.125,6.125,0,0,0,77.537,5ZM8.125,5a6.125,6.125,0,1,0,6.125,6.125A6.125,6.125,0,0,0,8.125,5Zm0,36.748a6.125,6.125,0,1,0,6.125,6.125,6.125,6.125,0,0,0-6.125-6.125ZM55.08,33.581H91.827v8.166H55.08Zm0,40.831H91.827v8.166H55.08Z" transform="translate(0 0)" fill="#04354a"/>
                                                <path id="Path_1830" data-name="Path 1830" d="M30.291,39.132,16,24.841V13h8.166v8.574L30.291,27.7l6.125-6.125V13h8.166V24.841Z" transform="translate(43.163 24.664)" fill="#04354a"/>
                                                <path id="Path_1831" data-name="Path 1831" d="M87.744,78.5H79.578V69.921L73.454,63.8l-6.125,6.125V78.5H59.163V66.654L73.454,52.363,87.744,66.654ZM46.914,45.831H10.166V13.166H75.5V25.415h8.166V9.083A3.858,3.858,0,0,0,79.578,5H6.083A3.858,3.858,0,0,0,2,9.083V49.914A3.858,3.858,0,0,0,6.083,54H46.914Z" transform="translate(0 0)" fill="#04354a"/>
                                                <path id="Path_1832" data-name="Path 1832" d="M25.225,23.386a7.319,7.319,0,0,1,7.35-7.35h0A12.4,12.4,0,0,0,18.692,8.279a11.719,11.719,0,0,0-9.391,9.8c-1.633,7.35,4.491,14.291,11.841,14.291a12.08,12.08,0,0,0,4.083-.817Z" transform="translate(21.689 9.379)" fill="#04354a"/>
                                            </g>
                                        </svg>
