                                            <svg xmlns="http://www.w3.org/2000/svg" width="83.941" height="83.941" viewBox="0 0 83.941 83.941">
                                                <path d="M27.985,5h0A20.988,20.988,0,0,0,7,25.985V59.562H48.971V25.985A20.988,20.988,0,0,0,27.985,5Z"
                                                    transform="translate(15.985 9.591)" fill="#00b1ff" opacity="0.3" />
                                                <path
                                                    d="M69.535,2.344,64.423,8.992A33.485,33.485,0,0,1,77.547,35.577h8.394A41.855,41.855,0,0,0,69.535,2.344Zm-51.129,0,5.112,6.648A33.485,33.485,0,0,0,10.394,35.577H2A41.855,41.855,0,0,1,18.406,2.344Zm31.86,12.247H37.675V8.3a6.3,6.3,0,0,1,6.3-6.3h0a6.3,6.3,0,0,1,6.3,6.3Z"
                                                    transform="translate(0 0)" fill="#04354a" />
                                                <path
                                                    d="M37.577,12.394A16.805,16.805,0,0,1,54.365,29.182V57.84l.722.722H20.066l.722-.722V29.182A16.805,16.805,0,0,1,37.577,12.394m0-8.394A25.181,25.181,0,0,0,12.394,29.182V54.365L4,62.759v4.2H71.153v-4.2l-8.394-8.394V29.182A25.181,25.181,0,0,0,37.577,4Z"
                                                    transform="translate(6.394 6.394)" fill="#04354a" />
                                                <path d="M18.394,18a8.394,8.394,0,1,0,8.394,8.394A8.394,8.394,0,0,0,18.394,18Z"
                                                    transform="translate(25.577 51.153)" fill="#04354a" />
                                            </svg>
