                                            <svg xmlns="http://www.w3.org/2000/svg" width="102.457" height="82.941" viewBox="0 0 102.457 82.941">
                                                <path d="M3,6H26.907l5.367,14.637,9.758,3.415,14.637-3.415L71.3,30.395l3.9,12.685L46.91,69.426,42.031,74.3,31.3,69.426,3,45.031Z" transform="translate(3.879 7.758)" fill="#00b1ff" opacity="0.3" />
                                                <path d="M45.422,86.941a11.758,11.758,0,0,1-8.782-3.415L6.879,57.668H2V8.879H46.886L54.2,5.464a14.474,14.474,0,0,1,12.685,0L84.941,13.27l19.516-6.343v60.5H70.3L54.692,83.038A13.329,13.329,0,0,1,45.422,86.941ZM11.758,48.886h0L42.983,76.208a4.432,4.432,0,0,0,4.879,0L74.208,49.862a3.585,3.585,0,0,0,.976-2.927,4.217,4.217,0,0,0-1.464-2.927L59.571,31.322l-10.246,3.9c-6.83,2.927-14.637-.488-18.052-6.83l-4.879-9.758H11.758Zm68.3,8.782H94.7V20.588L84.941,24,62.986,14.246a8.314,8.314,0,0,0-4.879,0l-18.54,8.782.488.976a5.283,5.283,0,0,0,5.855,2.439l15.612-5.855,18.54,16.1a14.516,14.516,0,0,1,4.879,9.758,15.745,15.745,0,0,1-3.9,10.246Z" transform="translate(0 0)" fill="#04354a" />
                                            </svg>
